<svg width="61" height="61" viewBox="0 0 61 61" fill="none" xmlns="http://www.w3.org/2000/svg">
<path fill-rule="evenodd" clip-rule="evenodd" d="M0 30.5C0 13.6553 13.6553 0 30.5 0C38.5891 0 46.3469 3.21338 52.0668 8.93324C57.7866 14.6531 61 22.4109 61 30.5C61 47.3447 47.3447 61 30.5 61C13.6553 61 0 47.3447 0 30.5ZM26.6263 40.7179L43.7673 23.5769C44.3289 22.9877 44.3289 22.0615 43.7673 21.4724L42.1508 19.8559C41.5578 19.2746 40.6088 19.2746 40.0158 19.8559L25.5588 34.3129L20.9838 29.7684C20.7071 29.4735 20.3207 29.3062 19.9163 29.3062C19.5119 29.3062 19.1255 29.4735 18.8488 29.7684L17.2323 31.3849C16.9436 31.6712 16.7812 32.061 16.7812 32.4676C16.7812 32.8742 16.9436 33.264 17.2323 33.5504L24.4913 40.7179C24.768 41.0127 25.1544 41.18 25.5588 41.18C25.9632 41.18 26.3496 41.0127 26.6263 40.7179Z" fill="#5693CA"/>
</svg>
